<?xml version="1.0" encoding="utf-8"?>
<!-- Generator: Adobe Illustrator 23.0.0, SVG Export Plug-In . SVG Version: 6.00 Build 0)  -->
<svg version="1.1" id="Capa_1" xmlns="http://www.w3.org/2000/svg" xmlns:xlink="http://www.w3.org/1999/xlink" x="0px" y="0px"
	 viewBox="0 0 28.7 28.6" style="enable-background:new 0 0 28.7 28.6;" xml:space="preserve">
<style type="text/css">
	.st0{fill:#FBA982;}
	.st1{fill:#FFFFFF;}
</style>
<g id="Grupo_196" transform="translate(-310 -89)">
	<circle id="Elipse_80" class="st0" cx="324.4" cy="103.3" r="13.5"/>
	<g id="Grupo_181" transform="translate(315.889 93.444)">
		<g id="Grupo_180" transform="translate(0 0)">
			<path id="Trazado_805" class="st1" d="M14.6,5.3h-3.3V4.2c0-0.9-0.8-1.6-1.7-1.5h-2C6.7,2.6,6,3.3,5.9,4.2v1.1H2.6
				c-0.4,0-0.7,0.3-0.7,0.7s0.3,0.7,0.7,0.7h0.7v7.3c0,1.1,0.9,2,2,2h6.6c1.1,0,2-0.9,2-2V6.6h0.7c0.4,0,0.7-0.3,0.7-0.7
				C15.2,5.6,14.9,5.3,14.6,5.3z M7.3,11.9c0,0.4-0.3,0.7-0.7,0.7c-0.4,0-0.7-0.3-0.7-0.7c0,0,0,0,0,0V9.3c0-0.4,0.3-0.7,0.7-0.7
				c0,0,0,0,0,0c0.4,0,0.7,0.3,0.7,0.7V11.9z M7.3,4.2c0-0.1,0.1-0.2,0.3-0.2h2c0.2,0,0.3,0.1,0.3,0.2v1.1H7.3L7.3,4.2z M11.2,11.9
				c0,0.4-0.3,0.7-0.7,0.7s-0.7-0.3-0.7-0.7V9.3c0-0.4,0.3-0.7,0.7-0.7s0.7,0.3,0.7,0.7V11.9z"/>
		</g>
	</g>
</g>
</svg>
