<?xml version="1.0" encoding="utf-8"?>
<!-- Generator: Adobe Illustrator 23.0.0, SVG Export Plug-In . SVG Version: 6.00 Build 0)  -->
<svg version="1.1" id="Capa_1" xmlns="http://www.w3.org/2000/svg" xmlns:xlink="http://www.w3.org/1999/xlink" x="0px" y="0px"
	 viewBox="0 0 30 30" style="enable-background:new 0 0 30 30;" xml:space="preserve">
<style type="text/css">
	.st0{fill:#D6D3D3;}
</style>
<g id="Grupo_97" transform="translate(991.763 1521.17)">
	<path id="Trazado_224_1_" class="st0" d="M-970.6-1495.4c-0.2,0-0.4,0-0.6-0.1l-5.6-2.9l-5.6,2.9c-0.4,0.2-1,0.2-1.4-0.1
		c-0.4-0.3-0.6-0.8-0.5-1.3l1.1-6.2l-4.5-4.4c-0.3-0.3-0.5-0.9-0.3-1.3c0.2-0.5,0.6-0.8,1-0.9l6.2-0.9l2.8-5.6
		c0.2-0.4,0.7-0.7,1.2-0.7c0.5,0,0.9,0.3,1.2,0.7l2.8,5.6l6.2,0.9c0.5,0.1,0.9,0.4,1,0.9c0.2,0.5,0,1-0.3,1.3l-4.5,4.4l1.1,6.2
		c0.1,0.5-0.1,1-0.5,1.3C-970.1-1495.5-970.3-1495.4-970.6-1495.4z M-976.8-1501.2c0.2,0,0.4,0,0.6,0.1l3.9,2l-0.7-4.3
		c-0.1-0.4,0.1-0.8,0.4-1.1l3.1-3l-4.3-0.6c-0.4-0.1-0.8-0.3-1-0.7l-1.9-3.9l-1.9,3.9c-0.2,0.4-0.5,0.6-1,0.7l-4.3,0.6l3.1,3
		c0.3,0.3,0.4,0.7,0.4,1.1l-0.7,4.3l3.9-2C-977.2-1501.2-977-1501.2-976.8-1501.2L-976.8-1501.2z"/>
</g>
</svg>
