<svg width="82" height="82" viewBox="0 0 82 82" fill="none" xmlns="http://www.w3.org/2000/svg">
<g filter="url(#filter0_d)">
<path d="M75 38C75 57.33 59.33 73 40 73C20.67 73 5 57.33 5 38C5 18.67 20.67 3 40 3C59.33 3 75 18.67 75 38Z" fill="#FF937F"/>
</g>
<g clip-path="url(#clip0)">
<path d="M56.1546 25.6667C52.4348 23.1667 49.2222 22 46.5169 22C44.1498 22 41.7826 23 39.4155 24.8333C37.8937 23.6667 35.3575 22 32.4831 22C28.5942 22 23.3527 25.3333 22.6763 25.6667C22.3382 26 22 26.5 22 27.1667V51.3333C22 52 22.3382 52.5 22.8454 52.8333C23.3527 53.1667 24.029 53.1667 24.5362 52.8333C25.8889 52 29.9469 49.6667 32.314 49.6667C34.5121 49.6667 37.2174 51.8333 38.0628 52.6667C38.2319 52.8333 38.401 53 38.57 53C38.7391 53 38.9082 53 39.0773 53.1667H39.2464C39.2464 53.1667 39.2464 53.1667 39.4155 53.1667C39.5845 53.1667 39.7536 53.1667 39.9227 53C40.0918 52.8333 40.2609 52.8333 40.43 52.6667C42.4589 50.6667 44.3188 49.6667 46.1787 49.6667C48.2077 49.6667 50.744 50.6667 53.9565 52.8333C54.2947 53 54.6328 53.1667 54.971 53.1667C55.3092 53.1667 55.4783 53.1667 55.8164 53C56.3237 52.6667 56.6618 52.1667 56.6618 51.5V27.1667C57 26.5 56.6618 26 56.1546 25.6667ZM25.3816 48.3333V28C27.0725 27 30.4541 25.3333 32.4831 25.3333C34.5121 25.3333 36.7101 26.8333 37.7246 27.8333V47.8333C36.2029 47 34.343 46.1667 32.4831 46.1667C30.1159 46.1667 27.4106 47.3333 25.3816 48.3333ZM53.6184 48.3333C50.913 46.8333 48.5459 46.1667 46.5169 46.1667C44.657 46.1667 42.9662 46.6667 41.2754 47.8333V27.8333C43.1353 26.1667 44.8261 25.3333 46.5169 25.3333C48.3768 25.3333 50.744 26.1667 53.6184 28V48.3333Z" fill="white"/>
</g>
<defs>
<filter id="filter0_d" x="0" y="0" width="82" height="82" filterUnits="userSpaceOnUse" color-interpolation-filters="sRGB">
<feFlood flood-opacity="0" result="BackgroundImageFix"/>
<feColorMatrix in="SourceAlpha" type="matrix" values="0 0 0 0 0 0 0 0 0 0 0 0 0 0 0 0 0 0 127 0" result="hardAlpha"/>
<feOffset dx="1" dy="3"/>
<feGaussianBlur stdDeviation="3"/>
<feColorMatrix type="matrix" values="0 0 0 0 0 0 0 0 0 0 0 0 0 0 0 0 0 0 0.161 0"/>
<feBlend mode="normal" in2="BackgroundImageFix" result="effect1_dropShadow"/>
<feBlend mode="normal" in="SourceGraphic" in2="effect1_dropShadow" result="shape"/>
</filter>
<clipPath id="clip0">
<rect width="35" height="31" fill="white" transform="translate(22 22)"/>
</clipPath>
</defs>
</svg>
