<?xml version="1.0" encoding="utf-8"?>
<!-- Generator: Adobe Illustrator 23.0.0, SVG Export Plug-In . SVG Version: 6.00 Build 0)  -->
<svg version="1.1" id="Capa_1" xmlns="http://www.w3.org/2000/svg" xmlns:xlink="http://www.w3.org/1999/xlink" x="0px" y="0px"
	 viewBox="0 0 30 30" style="enable-background:new 0 0 30 30;" xml:space="preserve">
<style type="text/css">
	.st0{fill:#FFD084;}
</style>
<g id="Grupo_96" transform="translate(-6.75 -7.239)">
	<path id="Trazado_224" class="st0" d="M27.9,33c-0.2,0-0.4,0-0.6-0.1l-5.6-2.9l-5.6,2.9c-0.6,0.3-1.4,0.1-1.7-0.5
		c-0.1-0.2-0.2-0.5-0.1-0.8l1.1-6.2l-4.5-4.4c-0.5-0.5-0.5-1.3,0-1.8c0.2-0.2,0.5-0.3,0.7-0.4l6.2-0.9l2.8-5.6
		c0.3-0.6,1.1-0.9,1.7-0.6c0.3,0.1,0.5,0.3,0.6,0.6l2.8,5.6l6.2,0.9c0.7,0.1,1.2,0.8,1.1,1.5c0,0.3-0.2,0.5-0.4,0.7l-4.5,4.4
		l1.1,6.2c0.1,0.7-0.4,1.4-1.1,1.5C28,33,28,33,27.9,33L27.9,33z"/>
</g>
</svg>
